<svg width="363" height="149" viewBox="0 0 363 149" fill="none" xmlns="http://www.w3.org/2000/svg">
<g clip-path="url(#clip0_692_344)">
<path d="M109.103 76.0388H117.019V77.6112L110.983 77.6283V80.9269H114.984V82.4737H110.983V85.3022H117.241V86.8917H109.103V76.0474V76.0388Z" fill="#F2F3F4"/>
<path d="M125.953 76.0388H128.56L131.621 82.7044L134.638 76.0388H137.314V86.8832H135.476V78.4572L132.416 85.2082H130.766V85.0459L127.782 78.6196V86.8832H125.961V76.0388H125.953Z" fill="#F2F3F4"/>
<path d="M146.59 76.0388H151.318C153.823 76.0388 154.985 77.1839 154.985 79.3631C154.985 81.5422 154.002 82.9266 151.318 82.9266H148.479V86.8832H146.599V76.0388H146.59ZM151.369 81.3969C152.737 81.3969 153.079 80.5253 153.079 79.4571C153.079 78.2778 152.694 77.577 151.258 77.577H148.479V81.4055H151.378L151.369 81.3969Z" fill="#F2F3F4"/>
<path d="M163.449 76.0387H168.176C170.741 76.0387 171.844 77.1411 171.844 79.3629C171.844 80.7644 171.297 81.995 169.664 82.465L172.314 86.8745H170.134L167.586 82.6701H165.338V86.8745H163.457V76.0302L163.449 76.0387ZM168.219 81.1319C169.57 81.1319 169.937 80.4653 169.937 79.3629C169.937 78.2007 169.51 77.5684 168.116 77.5684H165.338V81.1319H168.219Z" fill="#F2F3F4"/>
<path d="M180.504 76.0388H188.421V77.6112L182.385 77.6283V80.9269H186.386V82.4737H182.385V85.3022H188.643V86.8917H180.504V76.0474V76.0388Z" fill="#F2F3F4"/>
<path d="M197.337 76.0388H205.254V77.6112L199.218 77.6283V80.9269H203.219V82.4737H199.218V85.3022H205.476V86.8917H197.337V76.0474V76.0388Z" fill="#F2F3F4"/>
<path d="M214.179 76.0388H216.239L221.642 84.3793V76.0388H223.54V86.8832H221.026L216.068 79.2178V86.8832H214.187V76.0388H214.179Z" fill="#F2F3F4"/>
<path d="M232.585 76.0387H236.457C240.518 76.0387 242.724 77.8504 242.724 81.4481C242.724 85.0458 241.006 86.8745 236.893 86.8745H232.585V76.0302V76.0387ZM236.791 85.3363C239.706 85.3363 240.723 83.8665 240.723 81.4481C240.723 79.0297 239.415 77.5684 236.526 77.5684H234.466V85.3363H236.791Z" fill="#F2F3F4"/>
<path d="M251.623 76.0388H253.521V86.8832H251.623V76.0388Z" fill="#F2F3F4"/>
<path d="M262.823 76.0388H265.43L268.491 82.7044L271.508 76.0388H274.184V86.8832H272.346V78.4572L269.286 85.2082H267.636V85.0459L264.652 78.6196V86.8832H262.831V76.0388H262.823Z" fill="#F2F3F4"/>
<path d="M283.451 76.0388H291.368V77.6112L285.332 77.6283V80.9269H289.333V82.4737H285.332V85.3022H291.59V86.8917H283.451V76.0474V76.0388Z" fill="#F2F3F4"/>
<path d="M300.293 76.0388H302.353L307.756 84.3793V76.0388H309.654V86.8832H307.141L302.182 79.2178V86.8832H300.302V76.0388H300.293Z" fill="#F2F3F4"/>
<path d="M321.392 77.6112H317.562V76.0388H327.103V77.6112H323.273V86.8832H321.392V77.6112Z" fill="#F2F3F4"/>
<path d="M340.225 75.7909C343.953 75.7909 345.91 78.3631 345.91 81.3968C345.91 84.4305 343.953 87.0284 340.225 87.0284C336.498 87.0284 334.557 84.439 334.557 81.3968C334.557 78.3546 336.498 75.7909 340.225 75.7909ZM340.225 85.1654C342.756 85.1654 344.038 83.5161 344.038 81.3968C344.038 79.2775 342.756 77.6453 340.225 77.6453C337.695 77.6453 336.43 79.3117 336.43 81.3968C336.43 83.4819 337.678 85.1654 340.225 85.1654Z" fill="#F2F3F4"/>
<path d="M355.785 83.7468C356.357 84.8321 357.358 85.3192 358.683 85.3192C359.845 85.3192 360.923 84.9176 360.923 83.8067C360.923 82.6957 359.187 82.3795 358.084 82.2343C355.99 81.9694 354.032 81.2942 354.032 79.0724C354.032 77.0556 355.93 75.9105 358.05 75.9105C360.333 75.9105 361.683 76.4574 362.675 78.4827H360.589C359.957 77.6282 359.247 77.5855 358.136 77.5855C357.195 77.5855 355.99 77.9786 355.99 78.91C355.99 79.9953 357.537 80.2346 358.563 80.3799C360.811 80.6704 362.812 81.4139 362.812 83.7639C362.812 85.9858 361.042 87.0113 358.691 87.0113C356.34 87.0113 354.323 86.1909 353.75 83.7725L355.793 83.7468H355.785Z" fill="#F2F3F4"/>
<path d="M221.582 40.5744V62.9554H215.427V40.5744C215.427 39.0362 214.17 37.7715 212.631 37.7715H203.185C201.646 37.7715 200.389 39.0277 200.389 40.5744V62.9554H194.234V40.5744C194.234 35.6351 198.252 31.6187 203.185 31.6187H212.631C217.573 31.6187 221.582 35.6351 221.582 40.5744Z" fill="#F2F3F4"/>
<path d="M244.331 31.9348H253V38.0876H244.331C242.348 38.0876 240.741 39.6942 240.741 41.6768V63.1263H234.585V41.6768C234.585 36.3016 238.962 31.9263 244.34 31.9263L244.331 31.9348Z" fill="#F2F3F4"/>
<path d="M276.834 32.6356C276.091 32.3279 275.304 32.1314 274.492 32.0203C274.073 31.9519 273.663 31.9348 273.244 31.9348H264.575V38.0876H273.244C275.236 38.0876 276.834 39.7113 276.834 41.6768V43.3603H263.959C262.164 43.3603 260.48 43.8388 259.035 44.6763C255.727 46.5991 253.624 50.3677 254.171 54.5721C254.196 54.8541 254.239 55.1447 254.299 55.4267C255.282 59.9986 259.557 63.1348 264.242 63.1348H278.561C280.989 63.1348 282.981 61.1437 282.981 58.7167V41.6853C282.981 37.592 280.442 34.0712 276.826 32.6441L276.834 32.6356ZM276.834 53.7176C276.834 55.5121 275.364 56.982 273.569 56.982H263.951C261.779 56.982 260.027 55.119 260.249 52.9314C260.249 52.8203 260.249 52.7348 260.275 52.6237C260.583 50.7864 262.31 49.5131 264.173 49.5131H275.432C276.202 49.5131 276.834 50.1455 276.834 50.9146V53.7176Z" fill="#F2F3F4"/>
<path d="M322.495 17.9287V58.6998C322.495 61.1438 320.511 63.1264 318.066 63.1264H307.312C298.925 63.1264 292.12 56.3326 292.12 47.9409V47.1547C292.12 38.0621 298.506 31.4564 307.312 31.4564C310.825 31.4564 313.894 32.405 316.339 34.1141V17.9202H322.495V17.9287ZM316.339 47.1632C316.339 41.1898 312.963 37.6263 307.312 37.6263C301.661 37.6263 298.284 41.4633 298.284 47.1632V47.9494C298.284 52.9315 302.328 56.9736 307.312 56.9736H313.262C314.963 56.9736 316.339 55.5977 316.339 53.8971V47.1632Z" fill="#F2F3F4"/>
<path d="M363 41.7196V53.5553C363 59.5201 358.161 64.3654 352.185 64.3654H342.422C336.455 64.3654 331.608 59.5286 331.608 53.5553V41.7196C331.608 35.7548 336.447 30.9094 342.422 30.9094H352.185C358.153 30.9094 363 35.7462 363 41.7196ZM356.845 41.7196C356.845 39.1474 354.759 37.0708 352.194 37.0708H342.431C339.858 37.0708 337.78 39.1559 337.78 41.7196V53.5553C337.78 56.1275 339.866 58.2126 342.44 58.2126H352.202C354.776 58.2126 356.862 56.1275 356.862 53.5553V41.7196H356.845Z" fill="#F2F3F4"/>
<path d="M182.086 41.7196V53.5553C182.086 59.5201 177.247 64.3654 171.271 64.3654H161.508C155.541 64.3654 150.694 59.5286 150.694 53.5553V41.7196C150.694 35.7548 155.532 30.9094 161.508 30.9094H171.271C177.238 30.9094 182.086 35.7462 182.086 41.7196ZM175.93 41.7196C175.93 39.1474 173.844 37.0708 171.28 37.0708H161.517C158.943 37.0708 156.866 39.1559 156.866 41.7196V53.5553C156.866 56.1275 158.952 58.2126 161.525 58.2126H171.288C173.861 58.2126 175.947 56.1275 175.947 53.5553V41.7196H175.93Z" fill="#F2F3F4"/>
<path d="M138.571 58.2127H124.73C119.011 58.2127 114.369 53.5724 114.369 47.8554V34.1654C114.369 28.4484 119.002 23.8167 124.722 23.8167H138.563V17.6638H124.722C115.6 17.6638 108.205 25.0558 108.205 34.1739V47.864C108.205 56.9821 115.6 64.3741 124.722 64.3741H138.563V58.2212L138.571 58.2127Z" fill="#F2F3F4"/>
<path d="M60.6982 5.39227V17.2707C60.6982 20.2445 58.2788 22.6629 55.3208 22.6629H26.0148C23.0483 22.6629 20.6375 20.2445 20.6375 17.2707V13.7755H25.5275V17.2707C25.5275 17.5441 25.7412 17.7748 26.0148 17.7748H55.3123C55.5688 17.7748 55.7996 17.5441 55.7996 17.2707V5.39227C55.7996 5.11881 55.5688 4.88808 55.3123 4.88808H26.0148C25.7412 4.88808 25.5275 5.11881 25.5275 5.39227V8.88742H20.6375V5.39227C20.6375 2.4184 23.0568 0 26.0148 0H55.3123C58.2788 0 60.6896 2.4184 60.6896 5.39227H60.6982Z" fill="#F2F3F4"/>
<path d="M29.6053 17.7749V14.2626C29.6053 13.9892 29.3744 13.7755 29.118 13.7755H5.37734C5.12086 13.7755 4.90714 13.9892 4.90714 14.2626V67.5957C4.90714 67.8521 5.12086 68.0657 5.37734 68.0657H29.118C29.3744 68.0657 29.6053 67.8521 29.6053 67.5957V22.663H34.4953V67.5957C34.4953 70.5611 32.0759 72.9538 29.118 72.9538H5.37734C2.41082 72.9538 0 70.5525 0 67.5957V14.2626C0 11.2888 2.41937 8.88745 5.37734 8.88745H29.118C32.0845 8.88745 34.4953 11.2888 34.4953 14.2626V17.7749H29.6053Z" fill="#FAAF1D"/>
<path d="M19.2951 86.8062C16.3371 86.8062 13.9263 84.3963 13.9263 81.4396V57.7084C13.9263 54.7431 16.3371 52.3333 19.2951 52.3333H72.658C75.616 52.3333 78.0268 54.7431 78.0268 57.7084V81.4396C78.0268 84.3963 75.616 86.8062 72.658 86.8062H19.2951ZM19.2951 57.2299C19.03 57.2299 18.8163 57.4435 18.8163 57.7084V81.4396C18.8163 81.7045 19.03 81.9181 19.2951 81.9181H72.658C72.9231 81.9181 73.1368 81.7045 73.1368 81.4396V57.7084C73.1368 57.4435 72.9231 57.2299 72.658 57.2299H19.2951Z" fill="#F2F3F4"/>
</g>
<path d="M29.1202 139.812C26.042 139.812 24.4639 138.266 24.4639 135.25V128.266H26.0889V134.969C26.0889 137.172 27.1202 138.312 29.1202 138.312C31.1202 138.312 32.1514 137.172 32.1514 134.969V128.266H33.7764V135.25C33.7764 138.266 32.1983 139.812 29.1202 139.812ZM36.3095 131.781H37.7783V132.484C38.497 131.969 39.497 131.703 40.5283 131.703C41.4814 131.703 42.2314 132.094 42.7002 132.875C43.4502 132.094 44.7627 131.703 46.0595 131.703C47.7002 131.703 48.7939 132.828 48.7939 135.016V139.672H47.3408V135.016C47.3408 133.703 46.6064 133.047 45.497 133.047C44.1064 133.047 43.1845 133.734 43.1845 134.781V139.625H43.2783V139.672H41.6377V139.625H41.7314V135.016C41.7314 133.703 41.0283 133.047 39.9658 133.047C38.6533 133.047 37.7783 133.734 37.7783 134.781V139.672H36.3095V131.781ZM54.9989 139.812C52.5458 139.812 50.9052 138.188 50.9052 135.766C50.9052 133.344 52.5458 131.719 54.9989 131.719C56.0458 131.719 57.0145 131.906 57.7177 132.406V131.859H59.1864V139.672H57.7177V139.156C56.9833 139.766 55.9833 139.812 54.9989 139.812ZM52.327 135.75C52.327 137.375 53.4052 138.453 55.0302 138.453C56.6395 138.453 57.7177 137.375 57.7177 135.75C57.7177 134.141 56.6395 133.062 55.0302 133.062C53.4052 133.062 52.327 134.141 52.327 135.75ZM68.0964 139.672H66.6277V128.125H68.0964V132.469C68.8152 131.984 69.8777 131.781 71.0027 131.781C72.6589 131.781 73.7683 132.891 73.7683 135.062V139.672H72.3152V135.062C72.3152 133.766 71.5652 133.109 70.4402 133.109C69.0339 133.109 68.0964 133.797 68.0964 134.828V139.672ZM76.192 131.859H77.6608V139.672H76.192V131.859ZM76.1295 128.641C76.3327 128.688 77.7233 128.641 77.7233 128.641V130.234H76.1295C76.1295 130.234 76.1764 128.688 76.1295 128.641ZM79.8345 137.547H81.3189C81.7095 138.328 82.5689 138.641 83.647 138.641C84.9595 138.641 85.522 138.172 85.522 137.531C85.522 136.844 84.7252 136.359 83.1783 136.328C81.0377 136.281 79.9439 135.359 79.9439 133.969C79.9439 132.562 81.3033 131.625 83.3345 131.625C84.8658 131.625 86.1002 132.312 86.6158 133.875H85.2408C84.8502 133.062 84.1627 132.719 83.3345 132.719C82.1158 132.719 81.2877 133.156 81.2877 133.844C81.2877 134.531 82.0533 135 83.5064 135.031C85.772 135.078 86.9439 136 86.9439 137.406C86.9439 138.812 85.8033 139.812 83.647 139.812C81.7252 139.812 80.3189 139.125 79.8345 137.547ZM88.1958 133V131.859H89.9927L90.0083 129.453L91.4927 129.438L91.477 131.859H93.8208V133H91.477L91.4614 137.453C91.4614 138.219 91.5083 138.469 92.5395 138.469H93.8208V139.672H91.9145C90.0708 139.672 89.9927 139.109 89.9927 137.453V133H88.1958ZM100.495 130.234H99.1508C99.1508 130.234 100.401 127.938 100.37 127.891H102.276L100.495 130.234ZM95.7289 135.75C95.7289 133.312 97.3695 131.672 99.8383 131.672C102.276 131.672 103.916 133.312 103.916 135.75C103.916 138.219 102.276 139.859 99.8383 139.859C97.3695 139.859 95.7289 138.219 95.7289 135.75ZM97.1508 135.75C97.1508 137.438 98.1664 138.641 99.8383 138.641C101.51 138.641 102.526 137.438 102.526 135.75C102.526 134.078 101.51 132.844 99.8383 132.844C98.1664 132.844 97.1508 134.078 97.1508 135.75ZM107.59 139.672H106.121V131.703H107.59V132.438C108.387 131.891 109.793 131.703 110.559 131.875V133.484C109.434 133.406 107.59 133.156 107.59 134.703V139.672ZM112.139 131.859H113.608V139.672H112.139V131.859ZM112.076 128.641C112.28 128.688 113.67 128.641 113.67 128.641V130.234H112.076C112.076 130.234 112.123 128.688 112.076 128.641ZM119.86 139.812C117.406 139.812 115.766 138.188 115.766 135.766C115.766 133.344 117.406 131.719 119.86 131.719C120.906 131.719 121.875 131.906 122.578 132.406V131.859H124.047V139.672H122.578V139.156C121.844 139.766 120.844 139.812 119.86 139.812ZM117.188 135.75C117.188 137.375 118.266 138.453 119.891 138.453C121.5 138.453 122.578 137.375 122.578 135.75C122.578 134.141 121.5 133.062 119.891 133.062C118.266 133.062 117.188 134.141 117.188 135.75ZM131.223 135.75C131.223 132.938 132.863 131.688 135.332 131.688C138.301 131.688 139.441 133.469 139.441 136.172H132.754C132.895 137.859 133.848 138.609 135.238 138.609C136.379 138.609 137.27 138.234 137.66 137.609H139.191C138.879 138.953 137.363 139.812 135.238 139.812C132.816 139.812 131.223 138.562 131.223 135.75ZM135.332 132.828C133.957 132.828 132.973 133.547 132.77 135.156H137.973C137.723 133.734 136.941 132.828 135.332 132.828ZM149.365 139.672H147.896V139.047C147.068 139.719 145.943 139.812 144.818 139.812C142.584 139.812 141.1 138.188 141.1 135.766C141.1 133.344 142.584 131.719 144.818 131.719C145.99 131.719 147.178 132.031 147.896 132.391V128.047H149.365V139.672ZM147.928 135.75C147.928 134.141 146.85 133.062 145.225 133.062C143.615 133.062 142.537 134.141 142.537 135.75C142.537 137.375 143.615 138.453 145.225 138.453C146.85 138.453 147.928 137.375 147.928 135.75ZM151.726 131.859H153.195V139.672H151.726V131.859ZM151.664 128.641C151.867 128.688 153.258 128.641 153.258 128.641V130.234H151.664C151.664 130.234 151.711 128.688 151.664 128.641ZM156.541 133.016H155.463V131.875H156.541V130.125C156.541 128.578 157.463 128.094 158.478 128.062C159.947 128.016 160.697 128.922 160.65 129.938H159.478C159.26 129.188 158.822 129.172 158.494 129.266C158.088 129.375 158.025 129.797 158.01 130.125V131.859H160.244V133H158.01V139.672H156.541V133.016ZM162.136 131.859H163.605V139.672H162.136V131.859ZM162.074 128.641C162.277 128.688 163.668 128.641 163.668 128.641V130.234H162.074C162.074 130.234 162.121 128.688 162.074 128.641ZM167.31 135.797C167.31 137.406 168.326 138.594 169.935 138.594C170.795 138.594 171.56 138.203 171.904 137.594H173.576C172.982 139 171.638 139.875 169.857 139.875C167.42 139.875 165.795 138.234 165.795 135.812C165.795 133.391 167.42 131.75 169.857 131.75C171.685 131.75 173.06 132.672 173.638 134.172H172.076C171.638 133.281 170.857 132.969 169.873 132.969C168.263 132.969 167.31 134.188 167.31 135.797ZM179.578 139.812C177.125 139.812 175.484 138.188 175.484 135.766C175.484 133.344 177.125 131.719 179.578 131.719C180.625 131.719 181.593 131.906 182.296 132.406V131.859H183.765V139.672H182.296V139.156C181.562 139.766 180.562 139.812 179.578 139.812ZM176.906 135.75C176.906 137.375 177.984 138.453 179.609 138.453C181.218 138.453 182.296 137.375 182.296 135.75C182.296 134.141 181.218 133.062 179.609 133.062C177.984 133.062 176.906 134.141 176.906 135.75ZM194.22 139.672H192.751V139.047C191.923 139.719 190.798 139.812 189.673 139.812C187.439 139.812 185.955 138.188 185.955 135.766C185.955 133.344 187.439 131.719 189.673 131.719C190.845 131.719 192.033 132.031 192.751 132.391V128.047H194.22V139.672ZM192.783 135.75C192.783 134.141 191.705 133.062 190.08 133.062C188.47 133.062 187.392 134.141 187.392 135.75C187.392 137.375 188.47 138.453 190.08 138.453C191.705 138.453 192.783 137.375 192.783 135.75ZM200.441 139.812C197.988 139.812 196.347 138.188 196.347 135.766C196.347 133.344 197.988 131.719 200.441 131.719C201.488 131.719 202.456 131.906 203.16 132.406V131.859H204.628V139.672H203.16V139.156C202.425 139.766 201.425 139.812 200.441 139.812ZM197.769 135.75C197.769 137.375 198.847 138.453 200.472 138.453C202.081 138.453 203.16 137.375 203.16 135.75C203.16 134.141 202.081 133.062 200.472 133.062C198.847 133.062 197.769 134.141 197.769 135.75ZM213.351 135.797C213.351 137.406 214.366 138.594 215.976 138.594C216.835 138.594 217.601 138.203 217.945 137.594H219.616C219.023 139 217.679 139.875 215.898 139.875C213.46 139.875 211.835 138.234 211.835 135.812C211.835 133.391 213.46 131.75 215.898 131.75C217.726 131.75 219.101 132.672 219.679 134.172H218.116C217.679 133.281 216.898 132.969 215.913 132.969C214.304 132.969 213.351 134.188 213.351 135.797ZM221.65 135.75C221.65 133.312 223.29 131.672 225.759 131.672C228.196 131.672 229.837 133.312 229.837 135.75C229.837 138.219 228.196 139.859 225.759 139.859C223.29 139.859 221.65 138.219 221.65 135.75ZM223.071 135.75C223.071 137.438 224.087 138.641 225.759 138.641C227.431 138.641 228.446 137.438 228.446 135.75C228.446 134.078 227.431 132.844 225.759 132.844C224.087 132.844 223.071 134.078 223.071 135.75ZM231.964 131.781H233.433V132.484C234.151 131.969 235.151 131.703 236.183 131.703C237.136 131.703 237.886 132.094 238.355 132.875C239.105 132.094 240.417 131.703 241.714 131.703C243.355 131.703 244.448 132.828 244.448 135.016V139.672H242.995V135.016C242.995 133.703 242.261 133.047 241.151 133.047C239.761 133.047 238.839 133.734 238.839 134.781V139.625H238.933V139.672H237.292V139.625H237.386V135.016C237.386 133.703 236.683 133.047 235.62 133.047C234.308 133.047 233.433 133.734 233.433 134.781V139.672H231.964V131.781ZM257.702 137.141L257.733 137.094H260.03L259.983 137.219C259.468 138.703 258.077 139.891 255.921 139.891C252.858 139.891 251.64 137.641 251.64 135.672C251.64 133.719 252.89 131.484 255.921 131.484C258.14 131.484 259.561 132.75 260.046 134.281L260.077 134.391H257.874L257.843 134.328C257.546 133.594 256.936 133.234 255.936 133.234C254.343 133.234 253.765 134.562 253.765 135.656C253.765 136.766 254.374 138.062 255.999 138.062C256.749 138.062 257.311 137.781 257.655 137.25C257.655 137.25 257.655 137.234 257.655 137.219C257.671 137.203 257.671 137.172 257.702 137.141ZM266.438 138.109C268.141 138.109 268.766 136.781 268.766 135.609C268.766 134.453 268.11 133.109 266.438 133.109C264.766 133.109 264.141 134.469 264.141 135.609C264.141 136.766 264.735 138.109 266.438 138.109ZM262.11 135.609C262.11 133.625 263.376 131.406 266.438 131.406C269.501 131.406 270.766 133.625 270.766 135.609C270.766 137.609 269.516 139.875 266.438 139.875C263.329 139.875 262.11 137.609 262.11 135.609ZM272.925 139.688V131.516H275.018V131.969C275.753 131.609 276.659 131.438 277.534 131.438C280.018 131.438 280.565 133.5 280.565 134.922V139.688H278.503V134.922C278.503 134.094 278.128 133.312 276.971 133.312C275.846 133.312 275.018 133.812 275.018 134.688V139.688H272.925ZM283.864 139.688V133.281H282.833V131.609H283.864V130.219C283.864 129.094 284.411 127.938 286.208 127.938C287.708 127.938 288.551 128.891 288.551 129.938V130.328H286.77C286.77 129.906 286.661 129.625 286.38 129.625C286.051 129.625 285.958 129.938 285.958 130.219V131.594H288.145V133.266H285.958V139.688H283.864ZM289.991 130.625V130.531C289.991 130.391 290.006 129.984 290.006 129.594C290.006 129.422 290.006 129.25 290.006 129.109C290.006 129.047 290.006 128.984 290.006 128.938C290.006 128.922 289.991 128.906 289.991 128.891C289.991 128.906 290.006 128.906 290.006 128.906V128.797C290.053 128.766 290.085 128.734 290.116 128.703C290.147 128.672 290.178 128.641 290.21 128.625C290.303 128.562 290.413 128.531 290.553 128.531C291.038 128.531 291.522 128.5 292.006 128.5C292.022 128.5 292.053 128.5 292.085 128.5C292.1 128.516 292.116 128.516 292.116 128.516L292.21 128.531V130.625H289.991ZM290.053 139.688V131.594H292.147V139.688H290.053ZM301.008 139.688V139.453C300.274 139.781 299.461 139.828 298.649 139.828C295.571 139.828 294.336 137.625 294.336 135.625C294.336 133.656 295.602 131.453 298.649 131.453C299.461 131.453 300.29 131.562 301.008 131.891V131.594H303.086V139.688H301.008ZM298.68 137.922C300.321 137.922 301.008 136.766 301.008 135.609C301.008 134.453 300.305 133.328 298.68 133.328C297.071 133.328 296.368 134.469 296.368 135.609C296.368 136.766 297.04 137.922 298.68 137.922ZM305.448 139.688V131.516H307.541V131.969C308.276 131.609 309.182 131.438 310.057 131.438C312.541 131.438 313.088 133.5 313.088 134.922V139.688H311.026V134.922C311.026 134.094 310.651 133.312 309.495 133.312C308.37 133.312 307.541 133.812 307.541 134.688V139.688H305.448ZM318.059 142.297L319.293 141.844C319.293 141.906 319.34 141.953 319.45 142C319.559 142.031 319.7 142.047 319.809 142.047C320.137 142.047 320.325 141.875 320.325 141.625C320.325 141.344 320.215 141.078 319.903 141.078C319.653 141.078 319.262 141.172 318.934 141.406C318.668 141.344 318.262 141.094 318.34 140.859L318.731 139.828C316.184 139.422 315.262 137.422 315.262 135.672C315.262 133.719 316.512 131.484 319.543 131.484C321.778 131.484 323.168 132.734 323.668 134.281L323.7 134.391H321.496L321.465 134.328C321.168 133.609 320.543 133.234 319.559 133.234C317.965 133.234 317.387 134.562 317.387 135.656C317.387 136.766 317.996 138.062 319.621 138.062C320.356 138.062 321.043 137.75 321.278 137.203C321.293 137.188 321.293 137.172 321.293 137.156L321.325 137.094H323.637L323.606 137.219C323.153 138.625 321.871 139.75 319.887 139.875L319.856 139.953H319.965C321.215 139.953 321.778 140.812 321.778 141.625C321.778 142.516 321.121 143.312 319.84 143.312C319.09 143.312 318.059 143.047 318.059 142.297ZM332.264 139.688V139.453C331.53 139.781 330.717 139.828 329.905 139.828C326.826 139.828 325.592 137.625 325.592 135.625C325.592 133.656 326.858 131.453 329.905 131.453C330.717 131.453 331.545 131.562 332.264 131.891V131.594H334.342V139.688H332.264ZM329.936 137.922C331.576 137.922 332.264 136.766 332.264 135.609C332.264 134.453 331.561 133.328 329.936 133.328C328.326 133.328 327.623 134.469 327.623 135.609C327.623 136.766 328.295 137.922 329.936 137.922ZM336.422 139.672V138.078H338V139.672C338 139.672 336.891 139.672 336.422 139.672Z" fill="#F1F2F4"/>
<defs>
<clipPath id="clip0_692_344">
<rect width="363" height="87.0284" fill="white"/>
</clipPath>
</defs>
</svg>
