<svg width="24" height="26" viewBox="0 0 24 26" fill="none" xmlns="http://www.w3.org/2000/svg">
<path d="M21.9028 1.44229C19.6568 -0.480927 16.3448 -0.480927 14.0989 1.44229C13.5707 1.89452 13.1399 2.42221 12.8076 2.99664H2.39966C1.07453 2.99664 0 4.07117 0 5.3963V23.3935C0 24.7186 1.07453 25.7931 2.39966 25.7931H20.3968C21.722 25.7931 22.7965 24.7186 22.7965 23.3935V9.65048L23.104 9.1532C24.6583 6.63809 24.1487 3.36552 21.9028 1.44229ZM13.805 3.66118C14.652 2.14006 16.2564 1.19675 17.9972 1.19675C19.7357 1.19901 21.3373 2.14062 22.1838 3.65949C23.0302 5.17836 22.9891 7.03569 22.0762 8.51569L19.8044 12.1904C19.0959 13.3392 18.4911 14.5489 17.9972 15.8048C17.5027 14.5512 16.8979 13.3443 16.19 12.1977L13.9176 8.52358C13.0008 7.04357 12.9574 5.18286 13.8044 3.66174L13.805 3.66118ZM1.19955 5.3963C1.19955 4.73345 1.73681 4.19675 2.3991 4.19675H12.2799C11.7714 5.81305 11.9521 7.62363 12.8977 9.1532L14.0009 10.9368L1.2401 23.6976C1.21476 23.6002 1.19955 23.4988 1.19955 23.3935V5.3963ZM2.08429 24.5502L10.1911 16.4434L18.3413 24.5936H2.39966C2.29041 24.5936 2.18566 24.5778 2.08485 24.5502H2.08429ZM21.5964 23.3935C21.5964 24.0563 21.0591 24.593 20.3963 24.593H20.0381L11.0398 15.5947L14.6491 11.9854L15.1701 12.8279C16.1235 14.3783 16.8815 16.0408 17.4273 17.777L17.9972 19.5769L18.5744 17.777C19.1201 16.0408 19.8782 14.3783 20.8316 12.8279L21.5964 11.5912V23.394V23.3935Z" fill="#FAAF1D"/>
</svg>
