<svg width="119" height="29" viewBox="0 0 119 29" fill="none" xmlns="http://www.w3.org/2000/svg">
<g clip-path="url(#clip0_692_385)">
<path d="M35.7664 24.9375H38.3615V25.4532L36.3829 25.4588V26.5406H37.6945V27.0478H36.3829V27.9755H38.4344V28.4968H35.7664V24.9403V24.9375Z" fill="#F1F2F4"/>
<path d="M41.2903 24.9375H42.1451L43.1484 27.1235L44.1377 24.9375H45.0149V28.494H44.4123V25.7306L43.409 27.9447H42.8681V27.8914L41.89 25.7839V28.494H41.2931V24.9375H41.2903Z" fill="#F1F2F4"/>
<path d="M48.0557 24.9375H49.6055C50.4266 24.9375 50.8078 25.313 50.8078 26.0277C50.8078 26.7424 50.4855 27.1964 49.6055 27.1964H48.675V28.494H48.0585V24.9375H48.0557ZM49.6223 26.6947C50.0707 26.6947 50.1828 26.4089 50.1828 26.0585C50.1828 25.6718 50.0567 25.442 49.5859 25.442H48.675V26.6975H49.6251L49.6223 26.6947Z" fill="#F1F2F4"/>
<path d="M53.5823 24.9374H55.1321C55.9729 24.9374 56.3344 25.2989 56.3344 26.0276C56.3344 26.4872 56.155 26.8908 55.6197 27.0449L56.4885 28.491H55.7739L54.9387 27.1122H54.2016V28.491H53.5851V24.9346L53.5823 24.9374ZM55.1461 26.6077C55.5889 26.6077 55.7094 26.3891 55.7094 26.0276C55.7094 25.6464 55.5693 25.439 55.1125 25.439H54.2016V26.6077H55.1461Z" fill="#F1F2F4"/>
<path d="M59.1736 24.9375H61.7688V25.4532L59.7901 25.4588V26.5406H61.1018V27.0478H59.7901V27.9755H61.8416V28.4968H59.1736V24.9403V24.9375Z" fill="#F1F2F4"/>
<path d="M64.6919 24.9375H67.2871V25.4532L65.3085 25.4588V26.5406H66.6201V27.0478H65.3085V27.9755H67.3599V28.4968H64.6919V24.9403V24.9375Z" fill="#F1F2F4"/>
<path d="M70.2129 24.9375H70.8883L72.6595 27.6728V24.9375H73.2817V28.494H72.4578L70.8323 25.9801V28.494H70.2157V24.9375H70.2129Z" fill="#F1F2F4"/>
<path d="M76.2468 24.9374H77.5164C78.8476 24.9374 79.5707 25.5315 79.5707 26.7114C79.5707 27.8913 79.0074 28.491 77.6593 28.491H76.2468V24.9346V24.9374ZM77.6257 27.9866C78.5814 27.9866 78.9149 27.5045 78.9149 26.7114C78.9149 25.9183 78.4861 25.439 77.5388 25.439H76.8634V27.9866H77.6257Z" fill="#F1F2F4"/>
<path d="M82.488 24.9375H83.1102V28.494H82.488V24.9375Z" fill="#F1F2F4"/>
<path d="M86.1594 24.9375H87.0142L88.0175 27.1235L89.0068 24.9375H89.884V28.494H89.2815V25.7306L88.2782 27.9447H87.7373V27.8914L86.7592 25.7839V28.494H86.1622V24.9375H86.1594Z" fill="#F1F2F4"/>
<path d="M92.9221 24.9375H95.5173V25.4532L93.5387 25.4588V26.5406H94.8503V27.0478H93.5387V27.9755H95.5902V28.4968H92.9221V24.9403V24.9375Z" fill="#F1F2F4"/>
<path d="M98.4431 24.9375H99.1185L100.89 27.6728V24.9375H101.512V28.494H100.688L99.0625 25.9801V28.494H98.4459V24.9375H98.4431Z" fill="#F1F2F4"/>
<path d="M105.36 25.4532H104.104V24.9375H107.232V25.4532H105.976V28.494H105.36V25.4532Z" fill="#F1F2F4"/>
<path d="M111.534 24.8564C112.756 24.8564 113.398 25.7 113.398 26.6949C113.398 27.6898 112.756 28.5418 111.534 28.5418C110.312 28.5418 109.676 27.6926 109.676 26.6949C109.676 25.6972 110.312 24.8564 111.534 24.8564ZM111.534 27.9309C112.363 27.9309 112.784 27.39 112.784 26.6949C112.784 25.9999 112.363 25.4646 111.534 25.4646C110.704 25.4646 110.29 26.0111 110.29 26.6949C110.29 27.3788 110.699 27.9309 111.534 27.9309Z" fill="#F1F2F4"/>
<path d="M116.635 27.4655C116.822 27.8214 117.15 27.9811 117.585 27.9811C117.966 27.9811 118.319 27.8494 118.319 27.4851C118.319 27.1207 117.75 27.0171 117.388 26.9694C116.702 26.8825 116.06 26.6611 116.06 25.9325C116.06 25.2711 116.682 24.8955 117.377 24.8955C118.126 24.8955 118.568 25.0749 118.893 25.7391H118.21C118.002 25.4588 117.77 25.4448 117.405 25.4448C117.097 25.4448 116.702 25.5737 116.702 25.8792C116.702 26.2351 117.209 26.3136 117.545 26.3613C118.282 26.4565 118.938 26.7004 118.938 27.4711C118.938 28.1997 118.358 28.536 117.587 28.536C116.817 28.536 116.155 28.267 115.968 27.4739L116.637 27.4655H116.635Z" fill="#F1F2F4"/>
<path d="M72.6397 13.3062V20.6462H70.6219V13.3062C70.6219 12.8018 70.2099 12.387 69.7055 12.387H66.6086C66.1041 12.387 65.6922 12.799 65.6922 13.3062V20.6462H63.6743V13.3062C63.6743 11.6863 64.9915 10.3691 66.6086 10.3691H69.7055C71.3253 10.3691 72.6397 11.6863 72.6397 13.3062Z" fill="#F1F2F4"/>
<path d="M80.0975 10.4735H82.9393V12.4914H80.0975C79.4473 12.4914 78.9204 13.0182 78.9204 13.6684V20.7029H76.9026V13.6684C76.9026 11.9056 78.3375 10.4707 80.1003 10.4707L80.0975 10.4735Z" fill="#F1F2F4"/>
<path d="M90.7529 10.7034C90.509 10.6026 90.2512 10.5381 89.9849 10.5017C89.8476 10.4792 89.7131 10.4736 89.5758 10.4736H86.734V12.4915H89.5758C90.2288 12.4915 90.7529 13.024 90.7529 13.6686V14.2207H86.5322C85.9436 14.2207 85.3915 14.3776 84.9179 14.6523C83.8333 15.2828 83.1439 16.5188 83.3232 17.8976C83.3316 17.9901 83.3457 18.0854 83.3653 18.1779C83.6876 19.6773 85.0889 20.7058 86.6247 20.7058H91.319C92.1149 20.7058 92.7679 20.0528 92.7679 19.2569V13.6714C92.7679 12.3289 91.9355 11.1743 90.7501 10.7062L90.7529 10.7034ZM90.7529 17.6174C90.7529 18.2059 90.2708 18.688 89.6823 18.688H86.5294C85.8175 18.688 85.243 18.077 85.3159 17.3596C85.3159 17.3231 85.3159 17.2951 85.3243 17.2587C85.4252 16.6561 85.9913 16.2385 86.6023 16.2385H90.2932C90.5455 16.2385 90.7529 16.4459 90.7529 16.6981V17.6174Z" fill="#F1F2F4"/>
<path d="M105.721 5.87976V19.2508C105.721 20.0524 105.071 20.7026 104.27 20.7026H100.744C97.9948 20.7026 95.7639 18.4745 95.7639 15.7224V15.4646C95.7639 12.4826 97.8574 10.3162 100.744 10.3162C101.896 10.3162 102.902 10.6273 103.704 11.1878V5.87695H105.721V5.87976ZM103.704 15.4674C103.704 13.5084 102.597 12.3397 100.744 12.3397C98.8916 12.3397 97.7846 13.598 97.7846 15.4674V15.7252C97.7846 17.3591 99.1102 18.6847 100.744 18.6847H102.695C103.252 18.6847 103.704 18.2335 103.704 17.6758V15.4674Z" fill="#F1F2F4"/>
<path d="M119 13.682V17.5635C119 19.5197 117.414 21.1088 115.455 21.1088H112.254C110.298 21.1088 108.709 19.5225 108.709 17.5635V13.682C108.709 11.7258 110.295 10.1367 112.254 10.1367H115.455C117.411 10.1367 119 11.723 119 13.682ZM116.982 13.682C116.982 12.8384 116.298 12.1574 115.458 12.1574H112.257C111.413 12.1574 110.732 12.8412 110.732 13.682V17.5635C110.732 18.4071 111.416 19.0909 112.26 19.0909H115.46C116.304 19.0909 116.988 18.4071 116.988 17.5635V13.682H116.982Z" fill="#F1F2F4"/>
<path d="M59.6919 13.682V17.5635C59.6919 19.5197 58.1057 21.1088 56.1467 21.1088H52.9461C50.9899 21.1088 49.4009 19.5225 49.4009 17.5635V13.682C49.4009 11.7258 50.9871 10.1367 52.9461 10.1367H56.1467C58.1029 10.1367 59.6919 11.723 59.6919 13.682ZM57.6741 13.682C57.6741 12.8384 56.9902 12.1574 56.1495 12.1574H52.9489C52.1054 12.1574 51.4243 12.8412 51.4243 13.682V17.5635C51.4243 18.4071 52.1082 19.0909 52.9517 19.0909H56.1523C56.9958 19.0909 57.6797 18.4071 57.6797 17.5635V13.682H57.6741Z" fill="#F1F2F4"/>
<path d="M45.4269 19.0912H40.8895C39.0146 19.0912 37.4928 17.5694 37.4928 15.6945V11.2047C37.4928 9.32981 39.0118 7.81082 40.8867 7.81082H45.4241V5.79297H40.8867C37.8964 5.79297 35.4722 8.21719 35.4722 11.2075V15.6973C35.4722 18.6876 37.8964 21.1118 40.8867 21.1118H45.4241V19.094L45.4269 19.0912Z" fill="#F1F2F4"/>
<path d="M19.8982 1.76842V5.664C19.8982 6.63929 19.1051 7.43242 18.1354 7.43242H8.5282C7.55571 7.43242 6.76538 6.63929 6.76538 5.664V4.51775H8.36845V5.664C8.36845 5.75368 8.43852 5.82935 8.5282 5.82935H18.1326C18.2167 5.82935 18.2924 5.75368 18.2924 5.664V1.76842C18.2924 1.67874 18.2167 1.60307 18.1326 1.60307H8.5282C8.43852 1.60307 8.36845 1.67874 8.36845 1.76842V2.91467H6.76538V1.76842C6.76538 0.793128 7.55851 0 8.5282 0H18.1326C19.1051 0 19.8954 0.793128 19.8954 1.76842H19.8982Z" fill="#F1F2F4"/>
<path d="M9.70531 5.82971V4.67786C9.70531 4.58817 9.62964 4.51811 9.54556 4.51811H1.76282C1.67874 4.51811 1.60868 4.58817 1.60868 4.67786V22.1687C1.60868 22.2528 1.67874 22.3228 1.76282 22.3228H9.54556C9.62964 22.3228 9.70531 22.2528 9.70531 22.1687V7.43279H11.3084V22.1687C11.3084 23.1412 10.5152 23.9259 9.54556 23.9259H1.76282C0.790325 23.9259 0 23.1384 0 22.1687V4.67786C0 3.70256 0.793128 2.91504 1.76282 2.91504H9.54556C10.5181 2.91504 11.3084 3.70256 11.3084 4.67786V5.82971H9.70531Z" fill="#FAAF1D"/>
<path d="M6.32544 28.4687C5.35575 28.4687 4.56543 27.6783 4.56543 26.7086V18.9259C4.56543 17.9534 5.35575 17.1631 6.32544 17.1631H23.8191C24.7888 17.1631 25.5791 17.9534 25.5791 18.9259V26.7086C25.5791 27.6783 24.7888 28.4687 23.8191 28.4687H6.32544ZM6.32544 18.769C6.23856 18.769 6.1685 18.839 6.1685 18.9259V26.7086C6.1685 26.7955 6.23856 26.8656 6.32544 26.8656H23.8191C23.906 26.8656 23.976 26.7955 23.976 26.7086V18.9259C23.976 18.839 23.906 18.769 23.8191 18.769H6.32544Z" fill="#F1F2F4"/>
</g>
<defs>
<clipPath id="clip0_692_385">
<rect width="119" height="28.5414" fill="white"/>
</clipPath>
</defs>
</svg>
