<svg width="20" height="15" viewBox="0 0 20 15" fill="none" xmlns="http://www.w3.org/2000/svg">
<path d="M0 14.4077V8.40771C0 7.95772 0.0916667 7.54938 0.275 7.18271C0.458333 6.81605 0.7 6.49105 1 6.20772V3.40771C1 2.57438 1.29167 1.86605 1.875 1.28271C2.45833 0.699382 3.16667 0.407715 4 0.407715H8C8.38333 0.407715 8.74167 0.478548 9.075 0.620215C9.40833 0.761882 9.71667 0.957715 10 1.20771C10.2833 0.957715 10.5917 0.761882 10.925 0.620215C11.2583 0.478548 11.6167 0.407715 12 0.407715H16C16.8333 0.407715 17.5417 0.699382 18.125 1.28271C18.7083 1.86605 19 2.57438 19 3.40771V6.20772C19.3 6.49105 19.5417 6.81605 19.725 7.18271C19.9083 7.54938 20 7.95772 20 8.40771V14.4077H18V12.4077H2V14.4077H0ZM11 5.40771H17V3.40771C17 3.12438 16.9042 2.88688 16.7125 2.69521C16.5208 2.50355 16.2833 2.40771 16 2.40771H12C11.7167 2.40771 11.4792 2.50355 11.2875 2.69521C11.0958 2.88688 11 3.12438 11 3.40771V5.40771ZM3 5.40771H9V3.40771C9 3.12438 8.90417 2.88688 8.7125 2.69521C8.52083 2.50355 8.28333 2.40771 8 2.40771H4C3.71667 2.40771 3.47917 2.50355 3.2875 2.69521C3.09583 2.88688 3 3.12438 3 3.40771V5.40771ZM2 10.4077H18V8.40771C18 8.12438 17.9042 7.88688 17.7125 7.69521C17.5208 7.50355 17.2833 7.40771 17 7.40771H3C2.71667 7.40771 2.47917 7.50355 2.2875 7.69521C2.09583 7.88688 2 8.12438 2 8.40771V10.4077Z" fill="#FAAF1D"/>
</svg>
