<?xml version="1.0" encoding="UTF-8"?>
<svg xmlns="http://www.w3.org/2000/svg" xmlns:xlink="http://www.w3.org/1999/xlink" viewBox="0 0 2000 2000">
  <defs>
    <style>
      .cls-1 {
        mix-blend-mode: luminosity;
      }

      .cls-2 {
        clip-path: url(#clippath);
      }

      .cls-3 {
        fill: none;
      }

      .cls-3, .cls-4 {
        stroke-width: 0px;
      }

      .cls-5 {
        opacity: .1;
      }

      .cls-6 {
        isolation: isolate;
      }

      .cls-4 {
        fill: #323c3d;
      }
    </style>
    <clipPath id="clippath">
      <path class="cls-3" d="M1732.98,1194.67h-831.34v-646.71h453.63c64.57,0,117.21-52.65,117.21-117.55V171.48c0-64.9-52.65-117.55-117.21-117.55h-638.4c-64.57,0-117.22,52.65-117.22,117.55v76.16h-332.44c-64.57,0-117.22,52.32-117.22,117.22v1162.55c0,64.57,52.65,116.88,117.22,116.88h186.11v184.75c0,64.53,52.5,117.02,117.02,117.02h1162.63c64.53,0,117.02-52.5,117.02-117.02v-517.3c0-64.58-52.5-117.07-117.02-117.07ZM706.28,354.26h78.15c5.63,0,10.6,4.63,10.6,10.6v76.49h-78.15c-5.96,0-10.6-4.97-10.6-10.93v-76.16ZM706.28,171.48c0-5.96,4.64-10.93,10.6-10.93h638.4c5.63,0,10.6,4.97,10.6,10.93v258.93c0,5.96-4.97,10.93-10.6,10.93h-453.63v-76.49c0-64.9-52.65-117.22-117.21-117.22h-78.15v-76.16ZM267.22,1537.68c-5.63,0-10.26-4.64-10.26-10.26V364.86c0-5.96,4.63-10.6,10.26-10.6h332.44v76.16c0,64.9,52.65,117.55,117.22,117.55h78.15v646.71h-224.67c-64.53,0-117.02,52.5-117.02,117.07v225.93h-186.11ZM795.02,1301.33v226.08c0,5.63-4.97,10.26-10.6,10.26h-224.44v-225.93c0-5.73,4.66-10.42,10.36-10.42h224.67ZM1743.34,1829.04c0,5.73-4.66,10.36-10.36,10.36H570.35c-5.7,0-10.36-4.64-10.36-10.36v-184.75h224.44c64.57,0,117.21-52.32,117.21-116.88v-226.08h831.34c5.7,0,10.36,4.69,10.36,10.42v517.3Z"/>
    </clipPath>
  </defs>
  <g class="cls-6">
    <g id="Layer_1" data-name="Layer 1">
      <g class="cls-5">
        <g>
          <path class="cls-4" d="M1472.48,171.48v258.93c0,64.9-52.65,117.55-117.22,117.55h-638.4c-64.57,0-117.22-52.65-117.22-117.55v-76.16h106.62v76.16c0,5.96,4.64,10.93,10.6,10.93h638.4c5.63,0,10.6-4.97,10.6-10.93V171.48c0-5.96-4.97-10.93-10.6-10.93h-638.4c-5.96,0-10.6,4.97-10.6,10.93v76.16h-106.62v-76.16c0-64.9,52.65-117.55,117.22-117.55h638.4c64.57,0,117.22,52.65,117.22,117.55Z"/>
          <path class="cls-4" d="M795.02,441.35v-76.49c0-5.96-4.97-10.6-10.6-10.6H267.22c-5.63,0-10.26,4.63-10.26,10.6v1162.55c0,5.63,4.63,10.26,10.26,10.26h517.21c5.63,0,10.6-4.64,10.6-10.26v-979.45h106.62v979.45c0,64.57-52.65,116.88-117.22,116.88H267.22c-64.57,0-117.22-52.32-117.22-116.88V364.86c0-64.9,52.65-117.22,117.22-117.22h517.21c64.57,0,117.22,52.32,117.22,117.22v76.49h-106.62Z"/>
          <path class="cls-4" d="M570.35,1946.06c-64.53,0-117.02-52.5-117.02-117.02v-517.3c0-64.58,52.5-117.07,117.02-117.07h1162.63c64.53,0,117.02,52.5,117.02,117.07v517.3c0,64.53-52.5,117.02-117.02,117.02H570.35ZM570.35,1301.33c-5.7,0-10.36,4.69-10.36,10.42v517.3c0,5.73,4.66,10.36,10.36,10.36h1162.63c5.7,0,10.36-4.64,10.36-10.36v-517.3c0-5.73-4.66-10.42-10.36-10.42H570.35Z"/>
        </g>
        <g class="cls-1">
          <g class="cls-2">
            <image width="6222" height="8000" transform="translate(111.32 -279.88) scale(.3)" xlink:href="../../../../../BANCO DE IMAGEM/EMPREENDIMENTOS /MONTBLANC/Imagens/Externa Noturna - A - 02.jpg"/>
          </g>
        </g>
      </g>
    </g>
  </g>
</svg>