<?xml version="1.0" encoding="UTF-8"?>
<svg id="Layer_1" data-name="Layer 1" xmlns="http://www.w3.org/2000/svg" viewBox="0 0 2000 2000">
  <defs>
    <style>
      .cls-1 {
        fill: none;
        stroke: #323c3d;
        stroke-miterlimit: 10;
        stroke-width: 2px;
      }

      .cls-2 {
        fill: #323c3d;
        stroke-width: 0px;
      }
    </style>
  </defs>
  <g>
    <path class="cls-1" d="M1472.48,171.48v258.93c0,64.9-52.65,117.55-117.22,117.55h-638.4c-64.57,0-117.22-52.65-117.22-117.55v-76.16h106.62v76.16c0,5.96,4.64,10.93,10.6,10.93h638.4c5.63,0,10.6-4.97,10.6-10.93V171.48c0-5.96-4.97-10.93-10.6-10.93h-638.4c-5.96,0-10.6,4.97-10.6,10.93v76.16h-106.62v-76.16c0-64.9,52.65-117.55,117.22-117.55h638.4c64.57,0,117.22,52.65,117.22,117.55Z"/>
    <path class="cls-1" d="M795.02,441.35v-76.49c0-5.96-4.97-10.6-10.6-10.6H267.22c-5.63,0-10.26,4.63-10.26,10.6v1162.55c0,5.63,4.63,10.26,10.26,10.26h517.21c5.63,0,10.6-4.64,10.6-10.26v-979.45h106.62v979.45c0,64.57-52.65,116.88-117.22,116.88H267.22c-64.57,0-117.22-52.32-117.22-116.88V364.86c0-64.9,52.65-117.22,117.22-117.22h517.21c64.57,0,117.22,52.32,117.22,117.22v76.49h-106.62Z"/>
    <path class="cls-1" d="M570.35,1946.06c-64.53,0-117.02-52.5-117.02-117.02v-517.3c0-64.58,52.5-117.07,117.02-117.07h1162.63c64.53,0,117.02,52.5,117.02,117.07v517.3c0,64.53-52.5,117.02-117.02,117.02H570.35ZM570.35,1301.33c-5.7,0-10.36,4.69-10.36,10.42v517.3c0,5.73,4.66,10.36,10.36,10.36h1162.63c5.7,0,10.36-4.64,10.36-10.36v-517.3c0-5.73-4.66-10.42-10.36-10.42H570.35Z"/>
  </g>
  <path class="cls-2" d="M1587.27,745.76c1.93,0,1.93-3,0-3s-1.93,3,0,3h0Z"/>
</svg>