<svg width="24" height="23" viewBox="0 0 24 23" fill="none" xmlns="http://www.w3.org/2000/svg">
<path d="M24 9.70596C24 4.35423 19.2878 0 13.4994 0C7.71097 0 2.99871 4.35423 3.00906 9.81978C3.01113 9.83841 3.28637 11.7734 2.41097 12.7937C2.03846 13.2262 1.49419 13.4393 0.751234 13.4393C0.337334 13.4393 0.0020752 13.7746 0.0020752 14.1864C0.0020752 16.2539 1.53144 17.6963 4.63362 18.5344C4.54877 18.8118 4.50117 19.1077 4.50117 19.414C4.50117 21.0634 5.84428 22.4003 7.50195 22.4003C9.15962 22.4003 10.5027 21.0634 10.5027 19.414C10.5027 19.3892 10.5007 19.3664 10.4986 19.3416C11.4361 19.3892 12.4356 19.414 13.5014 19.414C13.5014 21.0634 14.8445 22.4003 16.5022 22.4003C18.1599 22.4003 19.503 21.0634 19.503 19.414C19.503 18.8676 19.354 18.3565 19.0953 17.9157C22.0402 16.1938 24.0021 13.16 24.0021 9.70803L24 9.70596ZM17.986 16.8188C17.5473 16.5684 17.0403 16.4236 16.4981 16.4236C15.393 16.4236 14.4286 17.0216 13.9091 17.9074C13.7725 17.9136 13.6359 17.9177 13.4994 17.9177C12.2494 17.9177 11.0946 17.8846 10.035 17.8184C9.50315 16.9803 8.56774 16.4236 7.49988 16.4236C6.71761 16.4236 6.0057 16.7236 5.47177 17.2141C3.29258 16.6988 1.9888 15.9083 1.61422 14.8528C2.40684 14.7059 3.05459 14.3396 3.55127 13.7622C4.88403 12.2142 4.50945 9.70389 4.50117 9.70389C4.50117 5.17582 8.5367 1.49211 13.5014 1.49211C18.4662 1.49211 22.5017 5.17582 22.5017 9.70389C22.5017 12.7398 20.6826 15.3971 17.9881 16.8168L17.986 16.8188Z" fill="#FAAF1D"/>
</svg>
