<svg width="32" height="22" viewBox="0 0 32 22" fill="none" xmlns="http://www.w3.org/2000/svg">
<path d="M30.4902 3.40005C30.1402 2.08005 29.1102 1.04005 27.8002 0.690048C25.4202 0.0500482 15.9002 0.0500488 15.9002 0.0500488C15.9002 0.0500488 6.37017 0.0500482 4.00017 0.690048C2.69017 1.04005 1.66017 2.08005 1.31017 3.40005C0.670166 5.79005 0.670166 10.78 0.670166 10.78C0.670166 10.78 0.670166 15.77 1.31017 18.16C1.66017 19.48 2.69017 20.52 4.00017 20.87C6.38017 21.51 15.9002 21.51 15.9002 21.51C15.9002 21.51 25.4302 21.51 27.8002 20.87C29.1102 20.52 30.1402 19.48 30.4902 18.16C31.1302 15.77 31.1302 10.78 31.1302 10.78C31.1302 10.78 31.1302 5.79005 30.4902 3.40005ZM12.7802 15.31V6.25005L20.7402 10.78L12.7802 15.31Z" fill="#FAAF1D"/>
</svg>
